<svg width="0" height="0" class="hidden"><symbol xmlns="http://www.w3.org/2000/svg" viewBox="0 0 24 16" id="arrow"><path d="M20.0827 9.4674C19.9523 8.49 19.868 7.61755 19.8298 6.85006C19.8133 6.07005 19.8429 5.39498 19.9187 4.82488L0.948718 15.7772L0.0512822 14.2228L19.0212 3.27047C18.4754 3.02637 17.8688 2.70217 17.2016 2.29788C16.556 1.88106 15.8497 1.38415 15.0827 0.807144L16.2216 0.149629C18.6281 1.16175 20.829 1.6675 22.8244 1.6669L23.209 2.33308C22.1965 4.03612 21.5341 6.19506 21.2216 8.80988L20.0827 9.4674Z"></path></symbol><symbol xmlns="http://www.w3.org/2000/svg" viewBox="0 0 36 36" id="close"><path d="M27 9L9 27" stroke-width="2" stroke-linecap="round" stroke-linejoin="round"></path><path d="M9 9L27 27" stroke-width="2" stroke-linecap="round" stroke-linejoin="round"></path></symbol><symbol xmlns="http://www.w3.org/2000/svg" viewBox="0 0 36 24" id="nav"><line x1="6.47852" y1="4.09091" x2="35.0003" y2="4.09091" stroke-width="2" stroke-linecap="round"></line><line x1="6.47852" y1="18.6364" x2="35.0003" y2="18.6364" stroke-width="2" stroke-linecap="round"></line><line x1="15.0869" y1="11.3636" x2="35" y2="11.3636" stroke-width="2" stroke-linecap="round"></line></symbol></svg>